Coordinates
version=1
nRows=6
nColumns=36
inDegrees=yes

Units are S.I. units (second, meters, Newtons, ...)
If the header above contains a line with 'inDegrees', this indicates whether rotational values are in degrees (yes) or radians (no).

endheader
time	pelvis_tilt	pelvis_list	pelvis_rotation	pelvis_tx	pelvis_ty	pelvis_tz	hip_flexion_r	hip_adduction_r	hip_rotation_r	knee_angle_r	knee_angle_r_beta	ankle_angle_r	subtalar_angle_r	mtp_angle_r	hip_flexion_l	hip_adduction_l	hip_rotation_l	knee_angle_l	knee_angle_l_beta	ankle_angle_l	subtalar_angle_l	mtp_angle_l	lumbar_extension	lumbar_bending	lumbar_rotation	arm_flex_r	arm_add_r	arm_rot_r	elbow_flex_r	pro_sup_r	arm_flex_l	arm_add_l	arm_rot_l	elbow_flex_l	pro_sup_l
      0.00000000	     -5.68406219	     -5.23266385	     -1.37477742	      1.37962588	      0.89648735	     -0.00759833	     31.67443108	     12.70717515	      1.71028093	     45.74895935	      0.79846997	     31.72877173	     -4.11545881	     -6.85753570	     55.84650381	    -14.64099910	      2.78821284	     47.75390226	      0.83346283	     23.59759353	     -0.39608416	     -6.85753570	    -24.20583483	      7.81897066	     -0.57200822	     59.32582261	    -10.33011915	     65.75481788	    122.63945285	     79.88115771	     59.78168361	    -10.24505220	     81.07708687	    119.22472194	     81.73777780
      0.01666670	     -8.01767888	     -6.46069806	     -3.78290495	      1.37951374	      0.88427183	     -0.00480976	     37.17961701	     14.85175856	     -0.18320131	     50.44305757	      0.88039744	     30.43358585	     -5.51221172	     -6.94947774	     59.06899899	    -16.91836032	      7.14120132	     46.26998449	      0.80756357	     22.19928959	     -0.24595945	     -6.94947774	    -24.03904196	      8.47532058	      6.33654959	     62.19554044	    -11.14097207	     73.56177724	    125.10668446	     90.62206248	     62.11269941	     -6.82543916	     80.69999907	    121.49277907	    103.51942515
      0.03333330	    -10.58557684	     -4.46023433	     -6.07401372	      1.38215305	      0.87438984	     -0.00036320	     41.95989068	     14.10792183	     -0.71918463	     54.42305529	      0.94986150	     34.87950414	     -3.65281933	     -6.97909653	     61.32832620	    -18.13736774	      5.88230335	     45.99777097	      0.80281255	     19.16765253	     -0.44789570	     -6.97909653	    -20.58940784	      5.61773331	      8.77748490	     59.32727425	     -9.84229070	     69.28413127	    126.53390880	     91.16509230	     60.63170838	     -5.28093270	     80.23937407	    120.80695072	    106.11215694
      0.05000000	    -12.46103943	     -2.46762105	     -6.46872672	      1.38464735	      0.86829566	      0.00208489	     44.58501907	     12.63882682	     -0.95097754	     56.21110806	      0.98106891	     38.71342620	     -1.70467404	     -7.01514232	     63.47005442	    -18.17553032	      3.90792046	     46.98458468	      0.82003570	     18.24734615	      1.20584826	     -7.01514232	    -17.81574491	      3.50682647	      9.58818247	     57.49312164	     -9.96870035	     68.35641390	    126.58383836	     92.26477974	     59.30304388	     -4.44608305	     79.56911226	    120.26728249	    108.51245470
      0.06666670	    -13.61666010	     -1.38743007	     -6.34547095	      1.38042375	      0.86327173	      0.00541624	     46.26866803	     11.85839132	     -1.14331362	     57.30659411	      1.00018875	     40.70365166	     -0.38199369	     -7.02291737	     65.32271024	    -18.20334976	      2.59069691	     48.00556400	      0.83785515	     18.46274548	      3.04653228	     -7.02291737	    -16.61908462	      2.32303399	     10.11145745	     58.07808994	    -10.40342498	     68.02532350	    126.20736018	     92.44251026	     59.99295888	     -3.84848885	     78.32394839	    120.54260038	    108.61438120
      0.08333330	    -15.11166021	     -1.06223409	     -5.83751546	      1.38032056	      0.85550392	      0.00533466	     48.39882632	     11.62439648	     -1.47019748	     58.36034273	      1.01858013	     41.82651327	      0.06749459	     -7.06920891	     68.05249904	    -18.21743787	      2.43697827	     49.24442042	      0.85947727	     18.43270527	      4.04689634	     -7.06920891	    -14.91558574	      2.25767121	     10.28357045	     57.85879460	    -10.63805720	     68.16506101	    125.62902203	     91.59126896	     60.00911557	     -3.06377893	     77.86966396	    120.62941341	    108.27197846
